<svg width="351" height="351" viewBox="0 0 351 351" fill="none" xmlns="http://www.w3.org/2000/svg">
<path d="M175.285 2C79.7333 2 2 79.7592 2 175.343C2 209.642 7.32949 231.478 21.6047 255.793L21.94 256.369C22.3993 257.099 66.1945 327.47 139.583 298.866C158.181 291.617 177.924 268.928 179.404 245.109C180.68 224.571 175.343 208.009 163.525 195.887C146.173 178.085 120.065 175.241 109.632 174.84C107.117 149.977 108.167 129.177 109.013 119.011C124.921 127.835 160.966 146.528 180.162 196.639L184.85 212.319L192.017 202.583C201.203 191.008 207.634 188.062 220.728 185.94C227.902 184.773 234.624 184.445 239.093 184.634C238.969 185.531 238.845 186.436 238.714 187.34C233.749 221.399 206.504 232.936 201.094 234.898L199.556 235.46L187.322 238.829L200.868 243.789C258.793 265.376 290.274 233.046 303.885 211.852C308.267 205.033 311.147 198.856 312.795 194.874C314.595 190.512 317.781 181.608 317.781 181.608L249.584 176.072C253.332 139.73 249.657 112.323 249.49 111.047L248.637 104.848L242.921 107.4C241.382 108.086 215.931 117.129 192.389 145.995L193.563 159.874C211.811 133.845 229.761 125.159 240.872 119.011C241.725 129.221 242.797 150.174 240.23 175.197C224.555 174.212 200.598 177.677 187.964 194.998C167.287 134.997 109.552 108.545 106.971 107.393L101.255 104.84L100.402 111.039C100.227 112.294 96.6696 138.87 100.14 174.365C82.2705 174.73 40.0063 180.455 34.6477 181.192L28.9245 181.928C28.9245 181.928 31.7095 190.461 33.2479 193.933C34.7571 197.339 37.3817 202.677 41.2895 208.774C52.5317 226.285 75.0016 250.98 112.272 250.98C123.193 250.98 135.405 248.857 148.966 243.803L161.433 239.157L149.017 235.015L148.506 234.789C138.788 230.843 115.684 218.328 111.171 187.347C111.025 186.341 110.901 185.356 110.762 184.357C120.765 184.962 142.718 187.967 156.847 202.502C166.704 212.632 171.144 226.781 170.036 244.54C168.789 264.443 151.576 284.229 135.944 290.209C109.312 300.405 81.5122 296.839 57.0665 279.78C39.2335 267.338 30.893 252.883 29.9087 251.403L29.7702 251.162C16.3772 228.335 11.3977 207.797 11.3977 175.35C11.3977 84.9446 84.917 11.4008 175.292 11.4008C265.668 11.4008 339.187 84.9446 339.187 175.35C339.187 265.748 260.345 335.842 185.944 338.074L175.285 348.685C270.829 348.685 348.57 270.919 348.57 175.343C348.57 79.7592 270.829 2 175.285 2ZM247.995 188.696C248.163 187.595 248.309 186.494 248.454 185.4L304.542 190.038C300.729 199.665 289.989 221.676 268.343 233.629C252.96 242.126 235.091 243.73 215.078 238.465C226.932 231.354 243.941 216.505 247.995 188.696ZM134.88 238.435C114.787 243.738 96.5748 242.177 80.6009 233.746C57.7592 221.698 45.9118 199.323 41.6978 189.725C58.6486 187.493 89.1601 183.81 101.175 183.723C101.387 185.363 101.613 187.019 101.853 188.696C105.841 216.009 122.311 230.894 134.88 238.435Z" fill="black" stroke="black" stroke-width="3"/>
</svg>
