<svg width="512" height="512" viewBox="0 0 512 512" fill="none" xmlns="http://www.w3.org/2000/svg">
<path d="M438 328.953C438 335.97 433.937 343.37 424.965 350.773C416.027 358.149 402.791 365.015 385.996 370.877C352.451 382.585 305.783 389.919 254 389.919C202.217 389.919 155.549 382.585 122.004 370.877C105.209 365.015 91.9733 358.149 83.0349 350.773C74.0634 343.37 70 335.97 70 328.953C70 321.935 74.0634 314.536 83.0349 307.132C91.9733 299.757 105.209 292.891 122.004 287.029C155.549 275.321 202.217 267.987 254 267.987C305.783 267.987 352.451 275.321 385.996 287.029C402.791 292.891 416.027 299.757 424.965 307.132C433.937 314.536 438 321.935 438 328.953Z" fill="#2B354F" stroke="#42BA96" stroke-width="10"/>
<path d="M141.091 120.317C78.1855 204.846 163.796 292.441 184.966 301.953C215.648 234.146 235.494 159.762 141.091 120.317Z" fill="#2B354F"/>
<path d="M141.091 120.317L143.019 115.703L139.413 114.196L137.08 117.331L141.091 120.317ZM184.966 301.953L182.917 306.514L187.466 308.557L189.521 304.014L184.966 301.953ZM137.08 117.331C104.204 161.509 110.258 206.636 126.994 241.434C135.338 258.782 146.363 273.668 156.657 284.835C166.81 295.85 176.685 303.714 182.917 306.514L187.015 297.392C182.662 295.436 173.897 288.784 164.01 278.058C154.263 267.485 143.848 253.405 136.006 237.099C120.371 204.589 115.073 163.654 145.102 123.302L137.08 117.331ZM139.163 124.93C162.201 134.556 177.903 146.161 188.193 158.939C198.45 171.676 203.537 185.836 204.957 200.967C207.826 231.538 195.739 266.015 180.411 299.892L189.521 304.014C204.874 270.084 218.051 233.465 214.913 200.032C213.33 183.16 207.596 167.09 195.982 152.667C184.4 138.285 167.183 125.8 143.019 115.703L139.163 124.93Z" fill="#42BA96"/>
<path d="M364.469 120.623C427.374 205.153 341.764 292.748 320.594 302.26C289.912 234.453 270.066 160.069 364.469 120.623Z" fill="#2B354F"/>
<path d="M364.469 120.623L362.541 116.01L366.147 114.503L368.48 117.638L364.469 120.623ZM320.594 302.26L322.643 306.82L318.094 308.864L316.039 304.321L320.594 302.26ZM368.48 117.638C401.356 161.815 395.302 206.943 378.566 241.74C370.222 259.088 359.197 273.975 348.903 285.142C338.75 296.157 328.875 304.021 322.643 306.82L318.545 297.699C322.898 295.743 331.663 289.091 341.55 278.364C351.296 267.791 361.712 253.712 369.554 237.406C385.189 204.896 390.487 163.961 360.458 123.608L368.48 117.638ZM366.397 125.237C343.359 134.863 327.657 146.468 317.367 159.246C307.11 171.983 302.023 186.143 300.603 201.273C297.734 231.845 309.821 266.322 325.149 300.198L316.039 304.321C300.685 270.39 287.509 233.772 290.647 200.339C292.23 183.467 297.964 167.397 309.578 152.974C321.16 138.592 338.377 126.107 362.541 116.01L366.397 125.237Z" fill="#42BA96"/>
<path d="M184.862 212.976C189.104 139.953 248.067 95.771 252.976 91.7824C257.885 95.771 316.848 139.953 321.09 212.976C325.332 285.998 261.874 319.135 252.976 322.51C244.078 319.135 180.62 285.998 184.862 212.976Z" fill="#2B354F" stroke="#42BA96" stroke-width="10" stroke-linecap="round"/>
<path d="M83.1718 195.487C198.495 203.455 248.833 261.417 252.562 340.298C138.415 341.319 82.7569 274.645 83.1718 195.487Z" fill="#2B354F" stroke="#42BA96" stroke-width="10" stroke-linecap="round"/>
<path d="M421.69 195.487C306.366 203.455 256.029 261.417 252.3 340.298C366.446 341.319 422.105 274.645 421.69 195.487Z" fill="#2B354F" stroke="#42BA96" stroke-width="10" stroke-linecap="round"/>
<rect x="0.5" y="0.5" width="511" height="511" stroke="white"/>
</svg>
