<svg width="347" height="347" viewBox="0 0 347 347" fill="none" xmlns="http://www.w3.org/2000/svg">
<path d="M173.285 0C77.7333 0 0 77.7592 0 173.343C0 207.642 5.32949 229.478 19.6047 253.793L19.94 254.369C20.3993 255.099 64.1945 325.47 137.583 296.866C156.181 289.617 175.924 266.928 177.404 243.109C178.68 222.571 173.343 206.009 161.525 193.887C144.173 176.085 118.065 173.241 107.632 172.84C105.117 147.977 106.167 127.177 107.013 117.011C122.921 125.835 158.966 144.528 178.162 194.639L182.85 210.319L190.017 200.583C199.203 189.008 205.634 186.062 218.728 183.94C225.902 182.773 232.624 182.445 237.093 182.634C236.969 183.531 236.845 184.436 236.714 185.34C231.749 219.399 204.504 230.936 199.094 232.898L197.556 233.46L185.322 236.829L198.868 241.789C256.793 263.376 288.274 231.046 301.885 209.852C306.267 203.033 309.147 196.856 310.795 192.874C312.595 188.512 315.781 179.608 315.781 179.608L247.584 174.072C251.332 137.73 247.657 110.323 247.49 109.047L246.637 102.848L240.921 105.4C239.382 106.086 213.931 115.129 190.389 143.995L191.563 157.874C209.811 131.845 227.761 123.159 238.872 117.011C239.725 127.221 240.797 148.174 238.23 173.197C222.555 172.212 198.598 175.677 185.964 192.998C165.287 132.997 107.552 106.545 104.971 105.393L99.2554 102.84L98.4024 109.039C98.2274 110.294 94.6696 136.87 98.1399 172.365C80.2705 172.73 38.0063 178.455 32.6477 179.192L26.9245 179.928C26.9245 179.928 29.7095 188.461 31.2479 191.933C32.7571 195.339 35.3817 200.677 39.2895 206.774C50.5317 224.285 73.0016 248.98 110.272 248.98C121.193 248.98 133.405 246.857 146.966 241.803L159.433 237.157L147.017 233.015L146.506 232.789C136.788 228.843 113.684 216.328 109.171 185.347C109.025 184.341 108.901 183.356 108.762 182.357C118.765 182.962 140.718 185.967 154.847 200.502C164.704 210.632 169.144 224.781 168.036 242.54C166.789 262.443 149.576 282.229 133.944 288.209C107.312 298.405 79.5122 294.839 55.0665 277.78C37.2335 265.338 28.893 250.883 27.9087 249.403L27.7702 249.162C14.3772 226.335 9.39769 205.797 9.39769 173.35C9.39769 82.9446 82.917 9.40082 173.292 9.40082C263.668 9.40082 337.187 82.9446 337.187 173.35C337.187 263.748 258.345 333.842 183.944 336.074L173.285 346.685C268.829 346.685 346.57 268.919 346.57 173.343C346.57 77.7592 268.829 0 173.285 0ZM245.995 186.696C246.163 185.595 246.309 184.494 246.454 183.4L302.542 188.038C298.729 197.665 287.989 219.676 266.343 231.629C250.96 240.126 233.091 241.73 213.078 236.465C224.932 229.354 241.941 214.505 245.995 186.696ZM132.88 236.435C112.787 241.738 94.5748 240.177 78.6009 231.746C55.7592 219.698 43.9118 197.323 39.6978 187.725C56.6486 185.493 87.1601 181.81 99.1752 181.723C99.3866 183.363 99.6126 185.019 99.8532 186.696C103.841 214.009 120.311 228.894 132.88 236.435Z" fill="#42BA96"/>
</svg>
